<svg xmlns="http://www.w3.org/2000/svg" xmlns:xlink="http://www.w3.org/1999/xlink" viewBox="0 0 434 96"><path d="M 42 0 L 54 0 L 54 33.514 L 77.7 9.816 L 86.184 18.302 L 62.484 42 L 96 42 L 96 54 L 62.484 54 L 86.184 77.7 L 77.698 86.184 L 54 62.484 L 54 96 L 42 96 L 42 62.486 L 18.3 86.184 L 9.816 77.698 L 33.516 54 L 0 54 L 0 42 L 33.514 42 L 9.816 18.3 L 18.302 9.816 L 42 33.516 Z M 342.444 92.5 L 326.57 92.5 L 326.57 29.5 L 342.444 29.5 Z M 334.444 20.376 C 328.82 20.376 324.694 16.376 324.694 11 C 324.694 5.5 328.82 1.5 334.444 1.5 C 340.07 1.5 344.194 5.5 344.194 11 C 344.194 16.376 340.07 20.376 334.444 20.376 Z" fill="rgb(255,255,255)"></path><path d="M 280.662 93.5 C 288.538 93.5 296.288 90 299.662 84.624 L 299.662 92.5 L 315.662 92.5 L 315.662 4 L 299.662 4 L 299.662 37.25 C 296.288 31.874 288.662 28.5 280.662 28.5 C 262.038 28.5 249.662 41.126 249.662 61 C 249.662 80.876 262.038 93.5 280.662 93.5 Z M 265.662 61 C 265.662 49.624 272.788 42 282.662 42 C 292.788 42 299.662 49.626 299.662 61 C 299.662 72.126 292.788 80 282.662 80 C 272.788 80 265.662 72.25 265.662 61 Z M 133 92.5 L 116 92.5 L 116 5 L 150.126 5 C 166.626 5 177.874 15.25 177.874 30.75 C 177.874 40.626 172.374 49.25 163.5 53.626 L 186.75 92.5 L 167 92.5 L 146.624 56.624 L 133 56.624 Z M 133 19.5 L 133 42.126 L 147.25 42.126 C 155.626 42.126 160.876 37.5 160.876 30.75 C 160.876 24 155.624 19.5 147.25 19.5 Z M 227.002 84.5 C 224.252 89.5 217.002 93.5 209.002 93.5 C 195.752 93.5 187.128 85.874 187.128 75 C 187.128 62.624 195.628 56 214.752 54 L 227.002 52.75 L 227.002 51.374 C 227.002 44.75 222.252 40.75 215.128 40.75 C 208.502 40.75 204.002 44.376 203.128 50.876 L 187.502 50.876 C 189.252 38.376 199.752 28.5 215.128 28.5 C 231.378 28.5 242.878 37.376 242.878 53.5 L 242.878 92.5 L 227.002 92.5 Z M 215.378 65.624 C 206.628 66.624 202.752 69.124 202.752 74.376 C 202.752 78.75 206.378 81.376 212.128 81.376 C 221.252 81.376 227.002 74.124 227.002 65.124 L 227.002 64.124 Z M 372.602 93.5 C 380.602 93.5 387.852 89.5 390.602 84.5 L 390.602 92.5 L 406.476 92.5 L 406.476 53.5 C 406.476 37.374 394.976 28.5 378.726 28.5 C 363.352 28.5 352.852 38.376 351.102 50.876 L 366.726 50.876 C 367.602 44.376 372.102 40.75 378.726 40.75 C 385.852 40.75 390.602 44.75 390.602 51.376 L 390.602 52.75 L 378.352 54 C 359.226 56 350.726 62.626 350.726 75 C 350.726 85.876 359.352 93.5 372.602 93.5 Z M 366.352 74.374 C 366.352 69.126 370.226 66.626 378.976 65.626 L 390.602 64.126 L 390.602 65.126 C 390.602 74.126 384.852 81.374 375.726 81.374 C 369.976 81.374 366.352 78.75 366.352 74.374 Z" fill="rgb(255,255,255)"></path><path d="M 432.386 92.5 L 416.51 92.5 L 416.51 4 L 432.386 4 Z" fill="rgb(255,255,255)"></path></svg>