<svg xmlns="http://www.w3.org/2000/svg" xmlns:xlink="http://www.w3.org/1999/xlink" viewBox="0 0 99.458 22"><path d="M 9.625 0 L 12.375 0 L 12.375 7.68 L 17.806 2.25 L 19.75 4.194 L 14.319 9.625 L 22 9.625 L 22 12.375 L 14.319 12.375 L 19.75 17.806 L 17.806 19.75 L 12.375 14.319 L 12.375 22 L 9.625 22 L 9.625 14.32 L 4.194 19.75 L 2.25 17.806 L 7.681 12.375 L 0 12.375 L 0 9.625 L 7.68 9.625 L 2.25 4.194 L 4.194 2.25 L 9.625 7.681 Z M 78.477 21.198 L 74.839 21.198 L 74.839 6.76 L 78.477 6.76 Z M 76.643 4.67 C 75.355 4.67 74.409 3.753 74.409 2.521 C 74.409 1.26 75.355 0.344 76.643 0.344 C 77.933 0.344 78.878 1.26 78.878 2.521 C 78.878 3.753 77.933 4.67 76.643 4.67 Z" fill="rgb(0,0,0)"></path><path d="M 64.318 21.427 C 66.123 21.427 67.899 20.625 68.673 19.393 L 68.673 21.198 L 72.339 21.198 L 72.339 0.917 L 68.673 0.917 L 68.673 8.536 C 67.899 7.304 66.152 6.531 64.318 6.531 C 60.05 6.531 57.214 9.425 57.214 13.979 C 57.214 18.534 60.05 21.427 64.318 21.427 Z M 60.881 13.979 C 60.881 11.372 62.514 9.625 64.777 9.625 C 67.097 9.625 68.673 11.373 68.673 13.979 C 68.673 16.529 67.097 18.333 64.777 18.333 C 62.514 18.333 60.881 16.557 60.881 13.979 Z M 30.479 21.198 L 26.583 21.198 L 26.583 1.146 L 34.404 1.146 C 38.185 1.146 40.763 3.495 40.763 7.047 C 40.763 9.31 39.502 11.286 37.469 12.289 L 42.797 21.198 L 38.271 21.198 L 33.601 12.976 L 30.479 12.976 Z M 30.479 4.469 L 30.479 9.654 L 33.745 9.654 C 35.664 9.654 36.867 8.594 36.867 7.047 C 36.867 5.5 35.664 4.469 33.745 4.469 Z M 52.021 19.365 C 51.391 20.51 49.73 21.427 47.896 21.427 C 44.86 21.427 42.883 19.679 42.883 17.188 C 42.883 14.351 44.831 12.833 49.214 12.375 L 52.021 12.089 L 52.021 11.773 C 52.021 10.255 50.933 9.339 49.3 9.339 C 47.782 9.339 46.75 10.169 46.55 11.659 L 42.969 11.659 C 43.37 8.794 45.776 6.531 49.3 6.531 C 53.024 6.531 55.66 8.565 55.66 12.26 L 55.66 21.198 L 52.021 21.198 Z M 49.357 15.039 C 47.352 15.268 46.464 15.841 46.464 17.044 C 46.464 18.047 47.295 18.649 48.613 18.649 C 50.704 18.649 52.021 16.987 52.021 14.924 L 52.021 14.695 Z M 85.388 21.427 C 87.221 21.427 88.883 20.51 89.513 19.365 L 89.513 21.198 L 93.151 21.198 L 93.151 12.26 C 93.151 8.565 90.515 6.531 86.791 6.531 C 83.268 6.531 80.862 8.794 80.461 11.659 L 84.041 11.659 C 84.242 10.17 85.273 9.339 86.791 9.339 C 88.424 9.339 89.513 10.255 89.513 11.774 L 89.513 12.089 L 86.706 12.375 C 82.323 12.833 80.375 14.352 80.375 17.188 C 80.375 19.68 82.351 21.427 85.388 21.427 Z M 83.956 17.044 C 83.956 15.841 84.843 15.268 86.849 15.039 L 89.513 14.696 L 89.513 14.925 C 89.513 16.987 88.195 18.648 86.104 18.648 C 84.786 18.648 83.956 18.047 83.956 17.044 Z" fill="rgb(0,0,0)"></path><path d="M 99.088 21.198 L 95.45 21.198 L 95.45 0.917 L 99.088 0.917 Z" fill="rgb(0,0,0)"></path></svg>